<svg height="512pt" viewBox="0 0 512.00049 512" width="512pt" xmlns="http://www.w3.org/2000/svg"><path d="m506.792969 58.175781-65.414063 65.410157h-370.757812l-65.414063-65.410157c3.273438-3.355469 7.765625-5.234375 12.449219-5.210937h476.6875c4.683594-.023438 9.179688 1.855468 12.449219 5.210937zm0 0" fill="#35495e"/><path d="m512 70.621094v423.722656c.023438 4.683594-1.855469 9.179688-5.207031 12.449219l-65.414063-65.414063v-317.792968l65.414063-65.410157c3.351562 3.269531 5.230469 7.761719 5.207031 12.445313zm0 0" fill="#547580"/><path d="m506.792969 506.792969c-3.269531 3.351562-7.765625 5.230469-12.449219 5.207031h-476.6875c-4.683594.023438-9.175781-1.855469-12.449219-5.207031l65.414063-65.414063h370.757812zm0 0" fill="#35495e"/><path d="m70.621094 123.585938v317.792968l-65.414063 65.414063c-3.351562-3.269531-5.2304685-7.765625-5.207031-12.449219v-423.722656c-.0234375-4.683594 1.855469-9.175782 5.207031-12.445313zm0 0" fill="#547580"/><path d="m70.621094 123.585938h370.757812v317.792968h-370.757812zm0 0" fill="#2c3e50"/><path d="m194.207031 176.550781h123.585938c9.75 0 17.65625 7.90625 17.65625 17.65625s-7.90625 17.65625-17.65625 17.65625h-123.585938c-9.75 0-17.65625-7.90625-17.65625-17.65625s7.90625-17.65625 17.65625-17.65625zm0 0" fill="#b49aca"/><path d="m203.035156 97.105469h-114.757812c-4.875 0-8.828125-3.953125-8.828125-8.828125s3.953125-8.828125 8.828125-8.828125h114.757812c4.875 0 8.828125 3.953125 8.828125 8.828125s-3.953125 8.828125-8.828125 8.828125zm0 0" fill="#2c3e50"/><path d="m423.722656 97.105469h-114.757812c-4.875 0-8.828125-3.953125-8.828125-8.828125s3.953125-8.828125 8.828125-8.828125h114.757812c4.878906 0 8.828125 3.953125 8.828125 8.828125s-3.949219 8.828125-8.828125 8.828125zm0 0" fill="#2c3e50"/><path d="m256 432.550781v79.449219l-97.101562-61.792969v-79.449219zm0 0" fill="#f0c419"/><path d="m353.105469 370.757812v79.449219l-97.105469 61.792969v-79.449219zm0 0" fill="#f29c1f"/><path d="m256 317.792969c-4.875 0-8.828125-3.953125-8.828125-8.828125v-35.308594c0-4.875 3.953125-8.828125 8.828125-8.828125s8.828125 3.953125 8.828125 8.828125v35.308594c0 4.875-3.953125 8.828125-8.828125 8.828125zm0 0" fill="#7f8c8d"/><path d="m282.484375 238.34375-19.421875 25.894531c-1.667969 2.222657-4.285156 3.527344-7.0625 3.527344s-5.394531-1.304687-7.0625-3.527344l-19.421875-25.894531v-26.480469h52.96875zm0 0" fill="#bdc3c7"/><path d="m353.105469 370.757812-97.105469 61.792969-97.101562-61.792969 97.101562-61.792968zm0 0" fill="#f3d55b"/><path d="m308.964844 8.828125v26.484375h-105.929688v-26.484375c0-4.875 3.953125-8.828125 8.828125-8.828125h88.273438c4.875 0 8.828125 3.953125 8.828125 8.828125zm0 0" fill="#3d324c"/><path d="m203.035156 35.3125h105.929688v141.238281h-105.929688zm0 0" fill="#7d6599"/><g fill="#3d324c"><path d="m238.34375 105.929688c0 4.875-3.949219 8.828124-8.828125 8.828124h-26.480469v-17.652343h26.480469c4.878906 0 8.828125 3.949219 8.828125 8.824219zm0 0"/><path d="m238.34375 141.242188c0 4.875-3.949219 8.828124-8.828125 8.828124h-26.480469v-17.65625h26.480469c4.878906 0 8.828125 3.953126 8.828125 8.828126zm0 0"/><path d="m308.964844 97.105469v17.652343h-26.480469c-4.875 0-8.828125-3.953124-8.828125-8.828124s3.953125-8.824219 8.828125-8.824219zm0 0"/><path d="m308.964844 132.414062v17.65625h-26.480469c-4.875 0-8.828125-3.953124-8.828125-8.828124s3.953125-8.828126 8.828125-8.828126zm0 0"/></g></svg>