<svg height="512pt" viewBox="0 -61 512.00055 512" width="512pt" xmlns="http://www.w3.org/2000/svg"><path d="m484.632812 348.851562-168.679687-9.898437-68.988281-4.199219-146.480469-171.273437 23.996094-77.992188c27.597656 36.296875 138.082031 143.679688 191.472656 167.378907 3.902344 1.496093 7.199219 2.695312 10.5 3.597656 16.796875 4.199218 44.09375 8.398437 57.894531 13.5zm0 0" fill="#53433f"/><path d="m484.632812 348.851562-168.679687-9.898437v-86.085937c3.902344 1.496093 7.199219 2.695312 10.5 3.597656 16.796875 4.199218 44.09375 8.398437 57.894531 13.5zm0 0" fill="#3e322e"/><path d="m510.128906 362.648438c-5.402344 16.800781-19.5 27.296874-37.195312 27.296874h-251.464844c-24.296875 0-47.496094-15.296874-56.492188-37.792968l-74.386718-171.277344-14.699219 195.273438c-.601563 7.796874-6.902344 13.796874-15 13.796874h-15.597656c-8.398438 0-14.996094-7.199218-14.699219-15.597656 3-125.082031-17.695312-226.765625-26.695312-269.058594-2.699219-12-3.898438-18.300781-3.898438-21 0-32.09375 12.597656-60.289062 21.597656-76.488281 4.199219-7.5 14.097656-10.199219 21.296875-5.402343 72.589844 48.296874 105.585938 115.1875 138.28125 189.277343 48.890625 109.78125 111.082031 119.082031 134.78125 119.980469 5.398438.300781 8.996094.300781 9.898438.601562 36.59375 0 85.789062-16.199218 56.691406-43.195312 38.394531 12.300781 76.589844 28.796875 111.984375 49.195312 14.398438 10.199219 20.996094 27.292969 15.597656 44.390626zm0 0" fill="#cc2e43"/><path d="m510.128906 362.648438c-5.402344 16.800781-19.5 27.296874-37.195312 27.296874h-156.980469v-78.289062c5.402344.300781 9 .300781 9.902344.601562 36.59375 0 85.785156-16.199218 56.691406-43.195312 38.394531 12.300781 76.589844 28.796875 111.984375 49.195312 14.398438 10.199219 20.996094 27.292969 15.597656 44.390626zm0 0" fill="#ae2538"/></svg>