<?xml version="1.0" encoding="iso-8859-1"?>
<!-- Generator: Adobe Illustrator 19.0.0, SVG Export Plug-In . SVG Version: 6.00 Build 0)  -->
<svg version="1.1" id="Layer_1" xmlns="http://www.w3.org/2000/svg" xmlns:xlink="http://www.w3.org/1999/xlink" x="0px" y="0px"
	 viewBox="0 0 512 512" style="enable-background:new 0 0 512 512;" xml:space="preserve">
<g>
	<path style="fill:#9D7BC6;" d="M153.341,85.757h-28.998c-25.804,0-47.764,18.791-51.754,44.285l-40.903,261.39h214.313
		l-40.904-261.391C201.105,104.548,179.144,85.757,153.341,85.757z"/>
	<path style="fill:#9D7BC6;" d="M358.661,85.757h28.998c25.804,0,47.764,18.791,51.754,44.285l40.904,261.391H266.004
		l40.904-261.391C310.897,104.548,332.857,85.757,358.661,85.757z"/>
	<path style="fill:#9D7BC6;" d="M272.08,71.49h-32.158c-26.488,0-49.031,19.29-53.126,45.459l-42.953,274.484h224.315
		l-42.953-274.484C321.111,90.779,298.568,71.49,272.08,71.49z"/>
</g>
<path style="opacity:0.15;fill:#FFFFFF;enable-background:new    ;" d="M272.08,71.49h-32.158c-26.488,0-49.031,19.29-53.126,45.459
	l-42.953,274.484h224.315l-42.953-274.484C321.111,90.779,298.568,71.49,272.08,71.49z"/>
<g>
	<path style="fill:#394049;" d="M196.052,296.722c-4.142,0-7.5-3.357-7.5-7.5v-10.539c0-4.143,3.358-7.5,7.5-7.5s7.5,3.357,7.5,7.5
		v10.539C203.552,293.364,200.194,296.722,196.052,296.722z"/>
	<path style="fill:#394049;" d="M315.95,296.722c-4.142,0-7.5-3.357-7.5-7.5v-10.539c0-4.143,3.358-7.5,7.5-7.5s7.5,3.357,7.5,7.5
		v10.539C323.45,293.364,320.092,296.722,315.95,296.722z"/>
</g>
<g>
	<path style="fill:#FFFFFF;" d="M204.344,315.959h-16.583c-4.142,0-7.5-3.357-7.5-7.5s3.358-7.5,7.5-7.5h16.583
		c4.142,0,7.5,3.357,7.5,7.5S208.486,315.959,204.344,315.959z"/>
	<path style="fill:#FFFFFF;" d="M324.241,315.959h-16.583c-4.142,0-7.5-3.357-7.5-7.5s3.358-7.5,7.5-7.5h16.583
		c4.142,0,7.5,3.357,7.5,7.5S328.383,315.959,324.241,315.959z"/>
</g>
<path style="fill:#394049;" d="M265.682,306.403c-3.588,0-6.923-1.105-9.681-2.994c-2.759,1.889-6.094,2.994-9.682,2.994
	c-9.474,0-17.181-7.708-17.181-17.182c0-4.143,3.358-7.5,7.5-7.5s7.5,3.357,7.5,7.5c0,1.203,0.979,2.182,2.181,2.182
	c1.203,0,2.182-0.979,2.182-2.182c0-4.143,3.358-7.5,7.5-7.5c4.142,0,7.5,3.357,7.5,7.5c0,1.203,0.978,2.182,2.181,2.182
	s2.182-0.979,2.182-2.182c0-4.143,3.358-7.5,7.5-7.5s7.5,3.357,7.5,7.5C282.864,298.695,275.156,306.403,265.682,306.403z"/>
<path style="fill:#ADD9E8;" d="M474.612,440.51H37.389c-8.896,0-17.172-4.555-21.931-12.07L1.535,406.455
	c-4.127-6.516,0.555-15.023,8.268-15.023h492.395c7.713,0,12.395,8.507,8.268,15.023l-13.923,21.985
	C491.784,435.955,483.508,440.51,474.612,440.51z"/>
<g>
</g>
<g>
</g>
<g>
</g>
<g>
</g>
<g>
</g>
<g>
</g>
<g>
</g>
<g>
</g>
<g>
</g>
<g>
</g>
<g>
</g>
<g>
</g>
<g>
</g>
<g>
</g>
<g>
</g>
</svg>
