<?xml version="1.0" encoding="iso-8859-1"?>
<!-- Generator: Adobe Illustrator 19.0.0, SVG Export Plug-In . SVG Version: 6.00 Build 0)  -->
<svg version="1.1" id="Capa_1" xmlns="http://www.w3.org/2000/svg" xmlns:xlink="http://www.w3.org/1999/xlink" x="0px" y="0px"
	 viewBox="0 0 464 464" style="enable-background:new 0 0 464 464;" xml:space="preserve">
<g>
	<path style="fill:#6884EB;" d="M464,150.422c0-11.509-5.752-22.257-15.328-28.641c-5.654-3.77-12.298-5.781-19.094-5.781h-59.155
		c-6.796,0-13.44,2.011-19.094,5.781C341.752,128.165,336,138.913,336,150.422V156h-40c-8.836,0-16,7.163-16,16
		c0,8.836,7.164,16,16,16h64v232c-17.673,0-32,14.327-32,32h136V150.422z"/>
	<path style="fill:#6884EB;" d="M168,156h-40v-5.578c0-11.509-5.752-22.257-15.328-28.641c-5.654-3.77-12.298-5.781-19.094-5.781
		H34.422c-6.796,0-13.44,2.011-19.094,5.781C5.752,128.165,0,138.913,0,150.422V452h144c0-14.894-10.222-27.3-24-30.869V188h48
		c8.836,0,16-7.164,16-16C184,163.163,176.836,156,168,156z"/>
</g>
<g>
	<path style="fill:#85878C;" d="M62.656,423.563C61.172,421.336,58.672,420,56,420h-8v-64H32v64h-8
		c-2.672,0-5.172,1.336-6.656,3.563l-16,24c-1.633,2.453-1.789,5.609-0.398,8.211S5.047,460,8,460h64
		c2.953,0,5.664-1.625,7.055-4.227s1.234-5.758-0.398-8.211L62.656,423.563z"/>
	<path style="fill:#85878C;" d="M462.656,447.563l-16-24C445.172,421.336,442.672,420,440,420h-8v-64h-16v64h-8
		c-2.672,0-5.172,1.336-6.656,3.563l-16,24c-1.633,2.453-1.789,5.609-0.398,8.211S389.047,460,392,460h64
		c2.953,0,5.664-1.625,7.055-4.227S464.289,450.016,462.656,447.563z"/>
</g>
<path style="fill:#D3D4D9;" d="M40,284c-22.091,0-40,17.909-40,40s17.909,40,40,40h384c22.091,0,40-17.909,40-40s-17.909-40-40-40
	H40z"/>
<g>
	<rect x="32" y="220" style="fill:#F0CE37;" width="64" height="64"/>
	<rect x="256" y="220" style="fill:#F0CE37;" width="64" height="64"/>
	<rect x="144" y="220" style="fill:#F0CE37;" width="64" height="64"/>
</g>
<g>
	<circle style="fill:#AFB1B8;" cx="64" cy="324" r="32"/>
	<circle style="fill:#AFB1B8;" cx="176" cy="324" r="32"/>
	<circle style="fill:#AFB1B8;" cx="400" cy="324" r="32"/>
	<circle style="fill:#AFB1B8;" cx="288" cy="324" r="32"/>
</g>
<path style="fill:#F0CE37;" d="M416,13.994C411.32,12.749,406.069,12,400,12s-11.32,0.749-16,1.994
	C360.918,20.131,353.667,39.958,352.292,60h95.415C446.333,39.958,439.082,20.131,416,13.994z"/>
<g>
	<path style="fill:#FCE8CA;" d="M448,68c0-2.648-0.109-5.325-0.292-8h-95.415c-0.184,2.675-0.292,5.352-0.292,8
		c0,15.997,11.31,30.127,24,38.849V124c0,13.255,10.745,24,24,24h0c13.255,0,24-10.745,24-24v-17.151
		C436.69,98.127,448,83.997,448,68z"/>
	<path style="fill:#FCE8CA;" d="M112,68c0-2.648-0.109-5.325-0.292-8H16.292C16.109,62.675,16,65.352,16,68
		c0,15.997,11.31,30.127,24,38.849V124c0,13.255,10.745,24,24,24h0c13.255,0,24-10.745,24-24v-17.151
		C100.69,98.127,112,83.997,112,68z"/>
</g>
<path style="fill:#F0CE37;" d="M80,13.994C75.32,12.749,70.069,12,64,12s-11.32,0.749-16,1.994
	C24.918,20.131,17.667,39.958,16.292,60h95.415C110.333,39.958,103.082,20.131,80,13.994z"/>
<g>
	<path style="fill:#85878C;" d="M64,364c-22.055,0-40-17.945-40-40s17.945-40,40-40s40,17.945,40,40S86.055,364,64,364z M64,300
		c-13.234,0-24,10.766-24,24s10.766,24,24,24s24-10.766,24-24S77.234,300,64,300z"/>
	<path style="fill:#85878C;" d="M176,364c-22.055,0-40-17.945-40-40s17.945-40,40-40s40,17.945,40,40S198.055,364,176,364z M176,300
		c-13.234,0-24,10.766-24,24s10.766,24,24,24s24-10.766,24-24S189.234,300,176,300z"/>
	<path style="fill:#85878C;" d="M400,364c-22.055,0-40-17.945-40-40s17.945-40,40-40s40,17.945,40,40S422.055,364,400,364z M400,300
		c-13.234,0-24,10.766-24,24s10.766,24,24,24s24-10.766,24-24S413.234,300,400,300z"/>
</g>
<g>
	<rect x="56" y="220" style="fill:#CFAC30;" width="16" height="32"/>
	<rect x="280" y="220" style="fill:#CFAC30;" width="16" height="32"/>
	<rect x="168" y="220" style="fill:#CFAC30;" width="16" height="32"/>
</g>
<g>
	<path style="fill:#85878C;" d="M288,364c-22.055,0-40-17.945-40-40s17.945-40,40-40s40,17.945,40,40S310.055,364,288,364z M288,300
		c-13.234,0-24,10.766-24,24s10.766,24,24,24s24-10.766,24-24S301.234,300,288,300z"/>
	<rect x="56" y="316" style="fill:#85878C;" width="16" height="16"/>
	<rect x="168" y="316" style="fill:#85878C;" width="16" height="16"/>
	<rect x="280" y="316" style="fill:#85878C;" width="16" height="16"/>
	<rect x="392" y="316" style="fill:#85878C;" width="16" height="16"/>
</g>
<g>
	<rect x="344" y="52" style="fill:#CFAC30;" width="112" height="16"/>
	<path style="fill:#CFAC30;" d="M424,36h-16V20h-16v16h-16V12c0-4.418,3.578-8,8-8h32c4.422,0,8,3.582,8,8V36z"/>
	<rect x="8" y="52" style="fill:#CFAC30;" width="112" height="16"/>
	<path style="fill:#CFAC30;" d="M88,36H72V20H56v16H40V12c0-4.418,3.578-8,8-8h32c4.422,0,8,3.582,8,8V36z"/>
	<rect x="256" y="276" style="fill:#CFAC30;" width="64" height="8"/>
	<rect x="144" y="276" style="fill:#CFAC30;" width="64" height="8"/>
	<rect x="32" y="276" style="fill:#CFAC30;" width="64" height="8"/>
</g>
<g>
</g>
<g>
</g>
<g>
</g>
<g>
</g>
<g>
</g>
<g>
</g>
<g>
</g>
<g>
</g>
<g>
</g>
<g>
</g>
<g>
</g>
<g>
</g>
<g>
</g>
<g>
</g>
<g>
</g>
</svg>
