<?xml version="1.0" encoding="iso-8859-1"?>
<!-- Generator: Adobe Illustrator 19.0.0, SVG Export Plug-In . SVG Version: 6.00 Build 0)  -->
<svg version="1.1" id="Layer_1" xmlns="http://www.w3.org/2000/svg" xmlns:xlink="http://www.w3.org/1999/xlink" x="0px" y="0px"
	 viewBox="0 0 512 512" style="enable-background:new 0 0 512 512;" xml:space="preserve">
<path style="fill:#71DFFE;" d="M489.065,138.279L512,60.237l-51.171-26.066L409.62,60.389L358.41,34.171l-51.208,26.218L256,34.171
	l-51.202,26.218L153.59,34.171L102.38,60.389L51.171,34.172L0,60.237l22.935,78.042L0,149.962l22.935,78.041L0,239.685
	l69.987,238.144h372.025l69.987-238.144l-22.935-11.683l22.935-78.041L489.065,138.279z"/>
<g>
	<polygon style="fill:#9BE7FE;" points="51.171,213.62 22.935,228.003 22.935,228.002 0,239.685 69.987,477.829 144.392,477.829 
		102.38,239.837 	"/>
	<polygon style="fill:#9BE7FE;" points="460.829,213.62 409.62,239.837 367.608,477.829 442.013,477.829 512,239.685 
		489.065,228.002 489.065,228.003 	"/>
	<polygon style="fill:#9BE7FE;" points="256,123.896 302.079,147.489 307.202,60.389 256,34.172 204.798,60.389 209.921,147.489 	
		"/>
	<polygon style="fill:#9BE7FE;" points="358.41,213.62 395.094,232.401 409.62,150.113 460.829,123.896 489.065,138.279 512,60.237 
		460.829,34.172 409.62,60.389 395.094,142.676 358.41,123.896 307.202,150.113 302.079,237.214 256,213.62 209.921,237.214 
		204.797,150.113 153.59,123.896 116.906,142.676 102.38,60.389 51.171,34.172 0,60.237 22.935,138.279 51.171,123.896 
		102.38,150.113 116.906,232.401 153.59,213.62 204.798,239.837 218.797,477.829 293.203,477.829 307.202,239.837 	"/>
</g>
<g>
</g>
<g>
</g>
<g>
</g>
<g>
</g>
<g>
</g>
<g>
</g>
<g>
</g>
<g>
</g>
<g>
</g>
<g>
</g>
<g>
</g>
<g>
</g>
<g>
</g>
<g>
</g>
<g>
</g>
</svg>
