<svg height="512pt" viewBox="0 0 512.05247 512" width="512pt" xmlns="http://www.w3.org/2000/svg"><path d="m304.496094 123.070312c-13.332032-13.328124-29.542969-18.726562-36.203125-12.0625-6.664063 6.667969-1.261719 22.875 12.074219 36.203126 13.332031 13.328124 29.539062 18.726562 36.203124 12.0625 6.664063-6.667969 1.257813-22.875-12.074218-36.203126zm0 0" fill="#ff5722"/><path d="m503.519531 8.539062-72.277343 72.277344c-30.207032 30.207032-66.390626 30.207032-114.6875 78.421875 5.203124-5.203125 3.070312-16.296875-4.609376-27.304687-2.195312-3.179688-4.683593-6.152344-7.421874-8.875-11.09375-11.09375-24.152344-16.640625-32.085938-14.335938-1.574219.382813-3.015625 1.179688-4.183594 2.300782 1.023438-1.023438 2.050782-2.132813 3.074219-3.15625 39.167969-40.445313 44.96875-72.277344 64.9375-99.328126zm0 0" fill="#fec108"/><path d="m469.300781 8.539062-63.660156 63.660157c-25.683594 25.683593-55.636719 29.523437-93.695313 59.734375-2.195312-3.179688-4.683593-6.152344-7.421874-8.875-11.09375-11.09375-24.152344-16.640625-32.085938-14.335938-.386719-.265625-.757812-.550781-1.109375-.855468 39.167969-40.445313 44.96875-72.277344 64.9375-99.328126zm0 0" fill="#fdd834"/><path d="m93.917969 170.671875h-68.265625c0-43.773437 0-93.78125 21.332031-118.015625 3.574219-4.128906 7.925781-7.523438 12.800781-9.984375 34.132813 17.066406 34.132813 76.800781 34.132813 128zm0 0" fill="#fec108"/><path d="m110.984375 247.472656v86.015625c-39.335937 26.882813-29.351563 70.316407-59.730469 93.101563-25.179687 17.761718-40.886718 46.035156-42.667968 76.796875v-255.914063c0-42.664062 17.066406-42.664062 17.066406-76.800781h68.265625c0 34.136719 17.066406 34.136719 17.066406 76.800781zm0 0" fill="#fec108"/><path d="m68.320312 170.671875h-42.667968c0-43.773437 0-93.78125 21.332031-118.015625 21.335937 24.234375 21.335937 74.242188 21.335937 118.015625zm0 0" fill="#fdd834"/><path d="m85.386719 247.472656v86.015625c-39.339844 26.882813-29.355469 70.316407-59.734375 93.101563-6.191406 4.628906-11.90625 9.859375-17.066406 15.613281v-194.730469c0-42.664062 17.066406-42.664062 17.066406-76.800781h42.667968c0 34.136719 17.066407 34.136719 17.066407 76.800781zm0 0" fill="#fdd834"/><path d="m503.519531 443.226562v60.160157h-269.824219c7.507813-23.386719 25.109376-42.175781 47.957032-51.199219 35.753906-15.359375 55.980468-80.640625 110.933594-92.074219 5.605468-1.222656 11.328124-1.824219 17.066406-1.792969 37.460937 0 60.5 23.210938 80.214844 46.933594 8.84375 10.675782 13.671874 24.109375 13.652343 37.972656zm0 0" fill="#37474f"/><path d="m469.386719 443.226562v60.160157h-235.691407c7.507813-23.386719 25.109376-42.175781 47.957032-51.199219 35.753906-15.359375 55.980468-80.640625 110.933594-92.074219 27.734374 5.71875 46.59375 25.257813 63.144531 45.140625 8.84375 10.675782 13.675781 24.109375 13.65625 37.972656zm0 0" fill="#607d8b"/><path d="m424.757812 359.6875c-4.984374-.90625-10.039062-1.363281-15.105468-1.367188-68.265625 0-88.746094 77.058594-128 93.867188-22.847656 9.023438-40.449219 27.8125-47.957032 51.199219h-225.109374c.007812-2.882813.207031-5.761719.597656-8.617188 4.382812-27.421875 19.527344-51.964843 42.070312-68.179687 34.132813-25.601563 17.066406-76.800782 76.796875-102.402344 39.253907-16.726562 59.734375-93.78125 128-93.78125 1.621094 0 3.246094.085938 4.78125.171875 64.511719 3.414063 84.90625 77.3125 123.21875 93.609375 17.3125 6.691406 31.722657 19.257812 40.707031 35.5zm0 0" fill="#37474f"/><path d="m392.585938 351.066406c-4.988282-.871094-10.042969-1.296875-15.105469-1.277344-68.265625 0-88.832031 77.054688-128 93.78125-22.847657 9.046876-40.464844 27.820313-48.042969 51.199219h-192.253906c4.382812-27.421875 19.527344-51.964843 42.070312-68.179687 34.132813-25.601563 17.066406-76.800782 76.796875-102.402344 39.253907-16.726562 59.734375-93.78125 128-93.78125 1.621094 0 3.246094.085938 4.78125.171875 40.617188 20.648437 59.988281 71.765625 91.050781 85.078125 17.285157 6.6875 31.6875 19.214844 40.703126 35.410156zm0 0" fill="#607d8b"/><path d="m308.710938 170.589844c-13.242188-1.210938-25.53125-7.414063-34.371094-17.351563-17.203125-17.183593-22.390625-37.9375-12.082032-48.253906 10.316407-10.316406 31.058594-5.121094 48.269532 12.066406 6.9375 6.699219 12.265625 14.882813 15.59375 23.933594 3.679687 8.101563 2.300781 17.605469-3.527344 24.328125-3.722656 3.566406-8.730469 5.46875-13.882812 5.277344zm-34.371094-53.546875c-1.511719 1.5.382812 12.457031 12.066406 24.128906 11.679688 11.675781 22.605469 13.5625 24.132812 12.058594.324219-.316407.800782-2.636719-.605468-6.824219-2.5-6.53125-6.414063-12.425781-11.460938-17.265625-11.683594-11.671875-22.621094-13.550781-24.132812-12.066406zm0 0"/><path d="m360.160156 42.484375c-3.121094 0-5.992187-1.707031-7.484375-4.449219-1.492187-2.738281-1.371093-6.074218.316407-8.699218 3.394531-5.367188 7.363281-10.347657 11.84375-14.847657l12.074218-12.066406c3.347656-3.234375 8.671875-3.1875 11.960938.105469 3.292968 3.289062 3.339844 8.613281.105468 11.960937l-12.066406 12.066407c-3.613281 3.648437-6.816406 7.679687-9.558594 12.023437-1.574218 2.441406-4.285156 3.914063-7.191406 3.90625zm0 0"/><path d="m325.222656 104.222656c-3.15625-.003906-6.050781-1.75-7.527344-4.539062-1.476562-2.789063-1.289062-6.167969.480469-8.78125 6.386719-9.53125 12.230469-19.414063 17.5-29.609375 1.402344-2.726563 4.164063-4.492188 7.226563-4.621094 3.066406-.132813 5.964844 1.394531 7.59375 3.992187 1.628906 2.597657 1.738281 5.871094.285156 8.574219-5.5625 10.757813-11.734375 21.191407-18.484375 31.25-1.589844 2.339844-4.242187 3.742188-7.074219 3.734375zm0 0"/><path d="m316.570312 167.804688c-3.449218 0-6.5625-2.078126-7.882812-5.265626s-.589844-6.859374 1.851562-9.300781c.203126-.203125.9375-2.234375-.597656-6.824219-2.503906-6.53125-6.417968-12.425781-11.46875-17.265624-11.675781-11.671876-22.648437-13.574219-24.140625-12.054688-3.335937 3.332031-8.738281 3.328125-12.070312-.003906-3.332031-3.335938-3.332031-8.738282.003906-12.070313 19.746094-19.917969 35.914063-43.089843 47.785156-68.5 5.53125-11.535156 12.015625-22.585937 19.386719-33.039062 1.613281-2.148438 4.140625-3.4140628 6.828125-3.4140628h167.253906c3.449219 0 6.5625 2.0781248 7.882813 5.2695318 1.320312 3.1875.589844 6.855468-1.851563 9.296874l-72.300781 72.242188c-13.605469 12.664062-29.195312 23.011719-46.148438 30.628906-25.414062 11.867188-48.585937 28.035156-68.496093 47.785156-1.597657 1.605469-3.769531 2.511719-6.035157 2.515626zm-28.347656-65.707032c8.414063 3.359375 16.019532 8.460938 22.316406 14.976563 6.492188 6.3125 11.605469 13.902343 15.007813 22.289062 17.613281-14.734375 37.023437-27.179687 57.761719-37.042969 15.367187-6.824218 29.511718-16.117187 41.875-27.511718l57.734375-57.71875h-142.230469c-5.707031 8.734375-10.851562 17.820312-15.414062 27.203125-9.859376 20.746093-22.308594 40.160156-37.050782 57.773437zm0 0"/><path d="m93.917969 179.191406h-68.265625c-4.710938 0-8.535156-3.824218-8.535156-8.535156 0-54.460938 0-116.179688 38.855468-135.601562 2.398438-1.203126 5.226563-1.203126 7.628906 0 38.851563 19.421874 38.851563 81.140624 38.851563 135.601562 0 4.710938-3.820313 8.535156-8.535156 8.535156zm-59.730469-17.070312h51.199219c-.09375-43.175782-1.597657-92.925782-25.601563-109.550782-23.996094 16.625-25.496094 66.375-25.597656 109.550782zm0 0"/><path d="m8.585938 511.921875c-4.714844 0-8.5351568-3.820313-8.5351568-8.535156v-255.949219c-.5234372-16.136719 2.9062498-32.160156 9.9960938-46.667969 4.792969-9.304687 7.222656-19.644531 7.070313-30.113281 0-4.710938 3.824218-8.535156 8.535156-8.535156h68.265625c4.714843 0 8.535156 3.824218 8.535156 8.535156-.15625 10.46875 2.273437 20.8125 7.074219 30.113281 7.082031 14.511719 10.511718 30.53125 9.992187 46.667969v86.078125c-.003906 2.816406-1.394531 5.449219-3.722656 7.039063-18.773437 12.867187-24.898437 29.765624-31.351563 47.660156-5.886718 16.289062-11.945312 33.132812-28.074218 45.226562-23.113282 16.066406-37.578125 41.847656-39.253906 69.945313 0 4.714843-3.820313 8.535156-8.53125 8.535156zm25.242187-332.730469c-.9375 9.9375-3.710937 19.621094-8.175781 28.550782-6.113282 12.3125-9.046875 25.960937-8.535156 39.695312v203.238281c7.769531-11.9375 17.59375-22.40625 29.015624-30.914062 12.039063-9.019531 16.769532-22.1875 22.253907-37.359375 6.390625-17.679688 13.585937-37.625 34.066406-53.246094v-81.71875c.515625-13.734375-2.417969-27.382812-8.535156-39.695312-4.46875-8.929688-7.246094-18.609376-8.199219-28.550782zm0 0"/><path d="m247.519531 179.191406c-2.265625.003906-4.4375-.894531-6.035156-2.503906l-17.066406-17.066406c-2.15625-2.152344-3-5.296875-2.210938-8.242188.789063-2.945312 3.089844-5.246094 6.035157-6.035156 2.945312-.792969 6.085937.050781 8.242187 2.203125l17.066406 17.066406c2.445313 2.441407 3.179688 6.113281 1.859375 9.308594-1.320312 3.191406-4.4375 5.269531-7.890625 5.269531zm0 0"/><path d="m221.917969 204.789062h-17.066407c-4.710937 0-8.53125-3.820312-8.53125-8.53125 0-4.714843 3.820313-8.535156 8.53125-8.535156h17.066407c4.714843 0 8.535156 3.820313 8.535156 8.535156 0 4.710938-3.820313 8.53125-8.535156 8.53125zm0 0"/><path d="m341.386719 230.382812c-1.324219 0-2.625-.3125-3.808594-.90625l-17.066406-8.535156c-2.75-1.347656-4.566407-4.066406-4.761719-7.125-.191406-3.058594 1.273438-5.984375 3.832031-7.667968 2.5625-1.683594 5.828125-1.863282 8.558594-.472657l17.066406 8.535157c3.601563 1.742187 5.507813 5.746093 4.589844 9.636718-.917969 3.894532-4.414063 6.625-8.410156 6.574219zm0 0"/><path d="m341.386719 196.257812c-3.964844.007813-7.410157-2.714843-8.320313-6.570312-.914062-3.859375.949219-7.835938 4.496094-9.601562l17.066406-8.535157c2.730469-1.390625 5.996094-1.210937 8.558594.472657 2.5625 1.683593 4.023438 4.609374 3.832031 7.667968-.191406 3.058594-2.007812 5.777344-4.761719 7.128906l-17.066406 8.53125c-1.179687.59375-2.484375.90625-3.804687.90625zm0 0"/><path d="m503.519531 511.921875h-269.867187c-2.816406 0-5.449219-1.390625-7.039063-3.714844-1.59375-2.324219-1.933593-5.28125-.914062-7.90625 8.359375-25.53125 27.628906-46.027343 52.589843-55.945312 12.953126-5.546875 24.621094-19.96875 36.96875-35.226563 21.375-26.429687 47.992188-59.339844 94.394532-59.339844 41.8125 0 66.707031 25.796876 86.777344 49.96875 10.117187 12.238282 15.640624 27.625 15.621093 43.503907v60.125c0 4.714843-3.820312 8.535156-8.53125 8.535156zm-256.855469-17.066406h248.320313v-51.59375c.019531-11.890625-4.117187-23.414063-11.6875-32.578125-18.390625-22.164063-39.238281-43.828125-73.644531-43.828125-38.253906 0-60.050782 26.9375-81.125 52.984375-13.714844 16.945312-26.675782 32.960937-43.519532 40.171875-16.679687 6.429687-30.351562 18.855469-38.34375 34.84375zm0 0"/><path d="m233.652344 511.921875h-225.066406c-4.714844 0-8.5351568-3.820313-8.5351568-8.535156 1.8554688-33.429688 18.8124998-64.199219 46.0820308-83.625 12.039063-9.011719 16.734376-22.074219 22.1875-37.207031 8.378907-23.277344 17.917969-49.671876 56.378907-66.175782 12.953125-5.546875 24.617187-19.957031 36.964843-35.222656 21.378907-26.457031 47.992188-59.308594 94.398438-59.308594 46.402344 0 73.019531 32.878906 94.394531 59.308594 12.347657 15.265625 24.011719 29.675781 36.964844 35.222656 19.039063 7.449219 34.882813 21.296875 44.816406 39.160156 1.609375 2.882813 1.410157 6.4375-.511719 9.121094-1.9375 2.664063-5.222656 3.988282-8.464843 3.414063-4.488281-.824219-9.042969-1.234375-13.609375-1.21875-38.253906 0-60.050782 26.9375-81.125 52.984375-13.714844 16.945312-26.675782 32.960937-43.519532 40.171875-20.707031 8.179687-36.644531 25.230469-43.410156 46.441406-1.265625 3.285156-4.421875 5.460937-7.945312 5.46875zm-215.78125-17.066406h210.019531c8.988281-23.128907 27.246094-41.441407 50.347656-50.492188 12.953125-5.554687 24.621094-19.976562 36.96875-35.234375 21-25.957031 47.042969-58.144531 91.945313-59.28125-7.496094-7.71875-16.527344-13.777344-26.511719-17.785156-16.835937-7.207031-29.800781-23.21875-43.523437-40.171875-21.074219-26.046875-42.871094-52.976563-81.125-52.976563-38.253907 0-60.046876 26.929688-81.125 52.976563-13.714844 16.953125-26.675782 32.964844-43.519532 40.171875-31.675781 13.578125-39.136718 34.324219-47.035156 56.277344-5.753906 16.222656-11.8125 33-27.941406 45.074218-20.460938 14.578126-34.304688 36.671876-38.5 61.441407zm0 0"/></svg>