<svg height="512pt" viewBox="-68 0 512 512" width="512pt" xmlns="http://www.w3.org/2000/svg"><path d="m291.742188 0h-208.367188c-4.519531 0-8.601562 2.707031-10.363281 6.871094l-20.457031 48.410156c-1.816407 4.289062-.796876 9.25 2.554687 12.480469l124.644531 120.066406c4.359375 4.199219 11.253906 4.199219 15.609375 0l124.644531-120.066406c3.355469-3.230469 4.371094-8.191407 2.558594-12.480469l-20.460937-48.410156c-1.757813-4.164063-5.839844-6.871094-10.363281-6.871094zm0 0" fill="#d7f3ff"/><g fill="#bdebff"><path d="m109.6875 120.332031 70.066406 67.496094c4.359375 4.199219 11.253906 4.199219 15.609375 0l70.070313-67.496094c-24.203125-9.265625-50.453125-14.355469-77.875-14.355469s-53.671875 5.089844-77.871094 14.355469zm0 0"/><path d="m313.964844 73.585938 6.042968-5.824219c1.554688-1.496094 2.597657-3.363281 3.101563-5.363281h-69.644531l-63.617188 128.339843c2.011719-.417969 3.929688-1.382812 5.515625-2.90625zm0 0"/><path d="m185.273438 190.738281-63.617188-128.339843h-69.644531c.503906 2 1.546875 3.867187 3.097656 5.363281l6.046875 5.824219 118.597656 114.246093c1.585938 1.523438 3.507813 2.488281 5.519532 2.90625zm0 0"/><path d="m253.464844 62.398438h-131.808594l26.371094-62.398438h79.0625zm0 0"/></g><path d="m179.757812 187.832031c1.582032 1.523438 3.503907 2.488281 5.515626 2.90625l-39.976563-80.644531c-12.265625 2.414062-24.167969 5.859375-35.613281 10.238281zm0 0" fill="#92d8ff"/><path d="m189.847656 190.738281c2.011719-.417969 3.929688-1.382812 5.515625-2.90625l70.070313-67.5c-11.445313-4.378906-23.34375-7.824219-35.613282-10.238281zm0 0" fill="#92d8ff"/><path d="m187.558594 136.882812c-103.585938 0-187.558594 83.972657-187.558594 187.558594 0 103.585938 83.972656 187.558594 187.558594 187.558594 103.585937 0 187.5625-83.972656 187.5625-187.558594 0-103.585937-83.976563-187.558594-187.5625-187.558594zm0 306.347657c-65.605469 0-118.789063-53.183594-118.789063-118.789063 0-65.605468 53.183594-118.789062 118.789063-118.789062 65.605468 0 118.789062 53.183594 118.789062 118.789062 0 65.605469-53.183594 118.789063-118.789062 118.789063zm0 0" fill="#ffde55"/><path d="m187.558594 167.785156c-86.378906 0-156.652344 70.277344-156.652344 156.65625s70.273438 156.652344 156.652344 156.652344 156.65625-70.273438 156.65625-156.652344-70.277344-156.65625-156.65625-156.65625zm0 275.445313c-65.605469 0-118.789063-53.183594-118.789063-118.789063 0-65.605468 53.183594-118.789062 118.789063-118.789062 65.605468 0 118.789062 53.183594 118.789062 118.789062 0 65.605469-53.183594 118.789063-118.789062 118.789063zm0 0" fill="#ffcd00"/></svg>